# xmcd
#
# Track frame offsets:
#	150
#	18830
#	37400
#	57605
#	76375
#	99040
#	115917
#	131992
#	153192
#	168245
#	184947
#	204950
#	225697
#	241882
#
# Disc length: 3479 seconds
#
# Revision: 0
# Processed by: cddbd v1.5.2PL0 Copyright (c) Steve Scherf et al.
# Submitted via: EasyCDDAExtractor 10.0.1.1
#
DISCID=b30d950e
DTITLE=eysuhl™ 박상민 - 박상민 [1999 Dmr 063] Vol.6 暴風
DYEAR=1999
DGENRE=Pop
TTITLE0=Pokerface
TTITLE1=사랑한 자의 부탁
TTITLE2=제발
TTITLE3=Loving You
TTITLE4=Sin
TTITLE5=무기여 다시한번
TTITLE6=두려운 고백
TTITLE7=다짐
TTITLE8=소녀의 선물
TTITLE9=Egoist
TTITLE10=슬픈사랑
TTITLE11=끝이 아니길
TTITLE12=그대 외로워지면
TTITLE13=Ellie My Love(Bonus Track)
EXTD=
EXTT0=
EXTT1=
EXTT2=
EXTT3=
EXTT4=
EXTT5=
EXTT6=
EXTT7=
EXTT8=
EXTT9=
EXTT10=
EXTT11=
EXTT12=
EXTT13=
PLAYORDER=
